<?xml version="1.0" standalone="no"?>
<!DOCTYPE svg PUBLIC "-//W3C//DTD SVG 20010904//EN"
 "http://www.w3.org/TR/2001/REC-SVG-20010904/DTD/svg10.dtd">
<svg version="1.0" xmlns="http://www.w3.org/2000/svg"
 width="1162.000000pt" height="1016.000000pt" viewBox="0 0 1162.000000 1016.000000"
 preserveAspectRatio="xMidYMid meet">

<g transform="translate(0.000000,1016.000000) scale(0.100000,-0.100000)"
fill="#000000" stroke="none">
<path d="M7020 8919 c-25 -5 -71 -13 -102 -18 -32 -6 -83 -15 -113 -21 -30 -5
-80 -14 -110 -20 -30 -5 -79 -14 -107 -20 -29 -5 -104 -18 -166 -29 -105 -19
-308 -56 -358 -66 -15 -3 -26 -19 -37 -52 -52 -159 -120 -349 -127 -356 -4 -5
-46 -15 -91 -23 -46 -7 -111 -18 -144 -23 -33 -6 -134 -22 -225 -37 -91 -14
-203 -32 -250 -41 -47 -8 -112 -18 -145 -23 -33 -5 -87 -13 -120 -19 -33 -5
-95 -15 -137 -21 -47 -8 -82 -19 -91 -29 -8 -9 -35 -72 -61 -141 -26 -69 -51
-134 -56 -145 -5 -11 -21 -52 -36 -92 -14 -40 -34 -75 -43 -78 -14 -6 -75 -15
-231 -35 -146 -19 -215 -31 -224 -40 -5 -5 -186 -443 -401 -972 -253 -622
-389 -968 -384 -978 4 -9 83 -70 176 -136 162 -117 489 -352 617 -444 34 -25
114 -82 177 -127 62 -45 197 -142 299 -215 102 -74 250 -180 330 -237 80 -57
177 -127 215 -156 189 -139 179 -134 295 -140 58 -3 146 -7 195 -10 50 -3 160
-7 245 -10 85 -3 191 -7 235 -10 114 -7 275 -14 458 -20 86 -4 167 -8 178 -10
11 -2 84 -5 162 -6 78 -1 192 -5 252 -10 106 -7 219 -12 631 -25 183 -7 192
-6 197 12 12 47 64 268 107 462 6 23 14 61 20 85 25 111 40 179 60 262 11 50
25 110 31 135 6 25 14 61 19 80 5 19 13 55 19 80 11 52 22 101 51 225 27 117
48 209 61 265 6 25 14 61 19 80 5 19 13 55 19 80 6 25 20 86 31 135 42 180 57
246 80 350 16 73 28 125 50 220 12 50 28 119 36 155 8 36 19 81 24 100 9 33
15 62 26 120 5 26 6 24 -141 215 -34 45 -133 175 -220 290 -87 116 -180 237
-205 270 -26 33 -116 152 -201 265 -86 113 -188 248 -228 300 -40 52 -119 156
-174 230 -56 74 -104 137 -107 140 -3 3 -51 66 -108 142 -57 75 -109 138 -115
140 -7 2 -32 1 -57 -3z m-94 -196 c-4 -16 -26 -91 -50 -168 -24 -77 -58 -187
-76 -245 -17 -58 -35 -116 -40 -130 -5 -14 -25 -79 -45 -145 -20 -66 -40 -131
-45 -145 -4 -14 -24 -79 -45 -145 -20 -66 -49 -160 -65 -210 -15 -49 -46 -148
-68 -220 -22 -71 -57 -183 -77 -248 -20 -65 -42 -120 -48 -122 -7 -2 -43 -6
-82 -9 -173 -13 -213 -17 -255 -22 -45 -5 -72 -8 -205 -19 -38 -4 -83 -8 -100
-10 -59 -7 -155 -8 -161 -2 -3 3 1 25 9 49 30 85 199 574 217 628 10 30 48
141 85 245 100 289 153 441 185 535 55 164 92 265 98 272 6 6 131 29 582 109
36 7 81 15 100 20 19 4 48 7 64 8 26 1 28 -1 22 -26z m295 -220 c74 -98 140
-184 146 -193 141 -175 140 -173 109 -282 -9 -32 -22 -82 -30 -110 -13 -47
-54 -194 -87 -313 -6 -22 -15 -51 -19 -65 -10 -34 -23 -78 -75 -270 -45 -164
-60 -218 -77 -275 -4 -16 -33 -120 -63 -230 -30 -110 -59 -213 -64 -230 -4
-16 -14 -50 -21 -75 -7 -25 -14 -51 -16 -57 -2 -7 -7 -13 -12 -13 -8 0 -297
295 -434 444 -49 52 -55 72 -39 122 5 16 21 65 34 109 23 76 68 220 141 455
18 58 48 152 66 210 17 58 47 152 65 210 18 58 47 152 65 210 17 58 51 166 74
240 24 74 51 162 61 195 18 59 32 95 39 95 2 0 64 -80 137 -177z m-1389 -338
c5 -6 5 -6 -132 -405 -50 -146 -104 -303 -120 -350 -97 -289 -186 -539 -193
-547 -9 -8 -55 -14 -156 -20 l-104 -6 5 24 c3 13 22 69 43 124 20 55 41 111
45 125 5 14 23 63 40 110 56 146 68 118 -141 322 l-184 178 -65 -5 c-36 -3
-91 -8 -122 -11 -35 -4 -58 -3 -58 3 0 12 48 145 83 227 13 32 31 63 40 68 9
4 47 13 84 18 81 11 119 17 196 30 31 6 83 14 115 20 31 5 158 26 282 45 124
20 243 40 265 44 50 11 70 12 77 6z m1864 -287 c38 -51 74 -100 81 -108 56
-71 627 -823 636 -837 10 -17 3 -53 -78 -403 -26 -113 -50 -220 -54 -239 -12
-68 3 -82 -301 279 -152 181 -193 229 -217 256 -10 12 -36 43 -58 70 -22 27
-54 64 -71 84 -95 108 -214 256 -214 267 0 6 7 38 16 70 28 104 32 117 52 188
11 39 29 106 41 150 50 182 90 315 96 315 2 0 34 -42 71 -92z m-2924 -334 c4
-3 -2 -27 -12 -52 -10 -26 -39 -103 -65 -172 -68 -182 -100 -268 -270 -715
-73 -192 -102 -271 -160 -425 -26 -69 -50 -134 -55 -145 -5 -11 -29 -75 -55
-142 -26 -68 -50 -123 -53 -124 -40 -5 -113 -8 -312 -13 -129 -4 -252 -8 -272
-10 -46 -4 -63 6 -54 30 58 163 685 1685 696 1690 14 6 40 10 225 32 44 6 91
13 105 16 24 5 49 8 165 22 28 4 52 8 54 10 7 6 57 5 63 -2z m268 -139 l94
-95 -18 -47 c-29 -77 -87 -236 -96 -263 -22 -67 -60 -164 -67 -171 -11 -10
-49 -16 -163 -24 -52 -4 -99 -8 -105 -9 -18 -2 -6 54 33 157 22 56 61 158 87
227 25 69 50 134 55 145 5 11 21 55 37 97 15 43 33 78 38 78 6 0 53 -43 105
-95z m2410 -445 c35 -41 77 -91 94 -111 17 -19 52 -60 77 -90 26 -29 67 -78
93 -108 50 -60 50 -60 37 -105 -13 -41 -22 -78 -76 -296 -25 -102 -50 -202
-55 -222 -6 -21 -14 -55 -19 -75 -27 -108 -36 -133 -47 -133 -6 0 -31 21 -55
48 -23 26 -113 121 -198 210 -86 90 -157 168 -159 172 -2 5 6 42 18 82 11 40
25 89 30 108 5 19 23 82 39 140 16 58 46 164 66 235 67 240 65 236 80 228 7
-5 41 -42 75 -83z m-1133 -185 c4 -12 -25 -123 -57 -215 -5 -14 -25 -79 -45
-145 -20 -66 -40 -131 -45 -145 -5 -14 -18 -59 -31 -100 -12 -41 -30 -100 -40
-130 -9 -30 -27 -87 -39 -127 -11 -40 -25 -75 -31 -79 -6 -3 -95 -8 -197 -10
-103 -2 -227 -6 -277 -9 -49 -3 -187 -8 -305 -10 -118 -3 -249 -8 -290 -10
-41 -3 -165 -7 -275 -10 -110 -3 -244 -7 -297 -9 -95 -5 -98 -4 -98 17 0 12
13 56 29 97 33 84 83 218 196 520 42 113 82 210 88 217 7 6 41 13 77 14 36 1
81 6 100 10 19 4 80 10 135 13 55 3 114 8 130 10 17 3 68 7 115 10 47 3 96 8
110 10 14 3 70 7 125 11 55 4 107 8 115 10 8 2 60 6 115 10 55 4 107 9 115 10
8 2 58 6 110 10 52 4 105 8 117 10 12 2 60 6 105 10 106 8 192 16 195 19 9 9
45 2 50 -9z m538 -451 c177 -185 263 -275 481 -503 143 -150 136 -142 160
-173 l21 -27 -68 -268 c-38 -147 -85 -335 -106 -418 -20 -82 -40 -154 -44
-158 -7 -9 -54 30 -180 147 -72 67 -84 78 -314 286 -88 80 -166 151 -174 159
-8 7 -110 101 -228 208 -117 107 -214 200 -214 207 -3 24 3 53 21 106 10 30
35 109 55 175 54 177 114 370 141 455 13 41 24 78 24 82 0 4 10 33 21 65 l22
57 101 -105 c56 -58 182 -191 281 -295z m1150 -15 c55 -66 126 -150 157 -187
32 -37 58 -75 58 -85 0 -9 -11 -66 -25 -125 -14 -59 -30 -127 -36 -152 -6 -25
-14 -61 -19 -80 -5 -19 -13 -55 -19 -80 -24 -105 -66 -288 -102 -440 -11 -47
-24 -103 -29 -125 -20 -90 -65 -282 -101 -435 -11 -47 -24 -104 -30 -127 -13
-59 -30 -134 -36 -156 -5 -17 -6 -17 -31 -1 -15 10 -32 22 -38 28 -6 6 -81 76
-168 155 -178 163 -165 135 -126 286 40 151 233 912 240 945 10 46 168 669
175 691 4 10 11 16 18 13 7 -3 57 -60 112 -125z m-1912 -655 c18 -14 57 -49
87 -78 30 -28 121 -112 203 -185 136 -123 167 -160 135 -162 -7 0 -373 -2
-813 -5 l-800 -4 -80 61 c-44 33 -93 70 -109 82 -16 12 -64 49 -107 82 -42 33
-109 85 -148 115 -45 35 -66 57 -58 61 6 4 107 9 222 13 116 3 278 8 360 11
328 12 419 15 630 21 121 4 221 7 222 8 1 0 52 2 113 4 108 2 113 1 143 -24z
m-1932 -56 c10 -7 62 -47 116 -89 54 -41 139 -106 188 -144 604 -462 778 -597
782 -611 2 -7 -24 -10 -84 -8 -48 1 -165 3 -259 3 l-170 1 -165 118 c-90 65
-249 180 -354 255 -104 75 -278 200 -386 277 -187 134 -256 187 -248 194 2 2
112 7 244 11 132 4 241 8 243 10 7 7 76 -5 93 -17z m1565 -527 c27 -1 414
-320 414 -341 0 -6 -68 -8 -187 -4 -104 3 -241 7 -305 8 l-117 4 -83 63 c-124
94 -162 123 -168 129 -3 3 -40 32 -83 64 -43 33 -74 63 -70 67 11 11 414 17
599 10z m1095 -81 c52 -47 96 -87 99 -90 3 -3 77 -71 165 -150 88 -80 165
-149 171 -155 10 -10 128 -117 288 -263 121 -110 123 -106 -40 -97 -77 4 -159
8 -184 10 -25 2 -111 4 -192 5 -139 2 -150 3 -184 26 -31 21 -198 157 -214
174 -3 3 -27 24 -55 45 -27 22 -52 43 -55 46 -3 3 -115 97 -250 208 -135 112
-269 224 -299 250 -30 25 -58 49 -64 52 -32 21 30 26 361 25 l359 -1 94 -85z
m-816 -416 c171 -2 320 -7 332 -9 24 -6 319 -244 342 -277 15 -20 14 -20 -90
-14 -198 11 -315 16 -454 21 -77 2 -171 7 -210 9 -38 3 -140 8 -225 11 -85 2
-207 8 -270 11 l-115 7 -100 71 c-56 39 -133 94 -172 121 -40 28 -72 54 -73
59 0 5 152 6 363 2 199 -4 502 -9 672 -12z"/>
<path d="M8704 3365 c-178 -43 -277 -149 -309 -331 -18 -102 -18 -174 0 -269
31 -163 109 -266 240 -315 94 -36 312 -44 420 -16 171 45 257 137 266 286 l4
55 -130 0 c-122 0 -130 -1 -133 -20 -6 -39 -24 -63 -66 -86 -34 -19 -55 -23
-126 -23 -95 0 -131 14 -173 64 -35 41 -47 89 -47 191 0 182 58 249 218 249
117 0 182 -34 196 -101 l6 -29 97 -1 c54 0 108 -2 121 -3 33 -4 41 13 32 71
-23 141 -132 242 -302 279 -77 16 -245 16 -314 -1z"/>
<path d="M2498 3364 c-5 -4 -8 -214 -8 -466 0 -445 1 -459 19 -466 16 -6 110
-7 219 -3 22 1 22 4 22 120 0 99 3 120 16 125 9 3 65 6 124 6 263 0 369 70
400 264 24 152 -16 294 -103 360 -71 54 -100 59 -402 64 -154 2 -283 0 -287
-4z m513 -253 c28 -34 27 -138 -2 -175 -20 -25 -23 -26 -134 -26 -94 0 -114 3
-119 16 -12 30 -7 189 7 203 9 9 42 12 120 9 100 -3 110 -5 128 -27z"/>
<path d="M3642 3358 c-15 -15 -17 -894 -3 -917 8 -12 69 -15 373 -16 200 0
371 3 381 8 16 7 17 20 15 110 l-3 102 -239 3 c-161 1 -244 6 -253 14 -9 7
-13 28 -11 62 l3 51 185 6 c102 3 186 6 188 7 1 1 2 52 2 112 l0 110 -177 0
c-98 0 -184 4 -191 9 -9 5 -12 25 -10 62 l3 54 250 5 c138 3 251 7 253 8 1 1
2 46 2 100 0 63 -4 102 -12 110 -17 17 -739 17 -756 0z"/>
<path d="M4758 3360 c-17 -10 -18 -43 -18 -460 0 -358 3 -451 13 -462 11 -10
74 -13 293 -12 153 0 306 4 339 8 152 20 228 117 229 291 1 108 -13 159 -60
220 l-35 46 16 47 c40 117 3 241 -89 297 l-49 30 -311 3 c-208 1 -317 -1 -328
-8z m508 -228 c19 -12 26 -50 14 -72 -10 -19 -18 -20 -138 -18 l-127 3 -3 33
c-6 61 -4 62 125 62 65 0 123 -4 129 -8z m68 -338 c22 -21 21 -102 -1 -126
-14 -16 -33 -18 -158 -18 -96 0 -145 4 -153 12 -16 16 -16 135 1 141 6 3 76 6
154 6 116 1 144 -2 157 -15z"/>
<path d="M5968 3359 c-17 -9 -18 -42 -18 -464 0 -336 3 -456 12 -461 17 -11
231 -11 246 -1 9 7 12 53 12 169 0 158 0 159 22 156 14 -2 74 -62 159 -158 75
-85 145 -159 156 -165 10 -5 75 -9 144 -8 167 2 169 2 169 11 0 5 -93 114
-206 243 -113 129 -213 245 -222 258 -16 24 -16 25 182 217 109 106 195 198
191 204 -7 11 -279 13 -307 2 -9 -4 -70 -60 -137 -124 -66 -65 -127 -118 -136
-118 -13 0 -15 19 -15 113 0 75 -4 117 -12 125 -15 15 -215 16 -240 1z"/>
<path d="M7536 3348 c-8 -13 -30 -66 -50 -118 -19 -52 -78 -210 -131 -350 -53
-140 -112 -295 -131 -345 -20 -54 -30 -93 -24 -99 12 -12 238 -12 249 0 5 5
19 37 31 71 12 35 28 67 35 73 8 7 70 9 165 8 l152 -3 24 -65 c14 -36 31 -71
39 -79 10 -10 44 -14 125 -15 62 -1 117 2 123 6 7 4 -13 70 -60 195 -40 103
-117 310 -174 458 -56 149 -107 273 -113 277 -6 4 -64 8 -128 8 -111 0 -118
-1 -132 -22z m151 -390 c18 -24 45 -109 39 -124 -4 -11 -19 -14 -58 -12 -51 3
-53 4 -51 30 2 34 39 118 51 118 5 0 14 -6 19 -12z"/>
<path d="M1490 1934 c-108 -40 -141 -80 -141 -172 -1 -98 39 -150 147 -191
124 -48 134 -54 141 -79 4 -19 0 -30 -18 -45 -20 -16 -33 -18 -88 -12 -35 4
-84 16 -109 26 -64 28 -72 22 -72 -55 l0 -65 58 -17 c39 -12 92 -18 172 -18
100 -1 120 2 157 21 51 28 79 66 93 127 11 52 1 110 -27 153 -21 32 -81 65
-176 99 -89 31 -116 57 -90 86 21 23 116 24 187 3 71 -22 73 -21 79 35 8 64 3
76 -36 90 -34 12 -252 24 -277 14z"/>
<path d="M4762 1925 c-72 -20 -106 -39 -152 -85 -67 -67 -85 -111 -84 -215 1
-111 23 -166 94 -235 66 -65 126 -85 250 -85 83 0 104 4 163 29 l68 28 -3 147
-3 146 -130 0 -130 0 0 -49 0 -49 45 -1 45 -1 0 -55 0 -55 -45 -3 c-116 -7
-188 109 -148 240 28 93 144 139 273 108 56 -13 71 -6 79 38 3 20 9 46 12 58
9 32 -36 45 -166 50 -82 3 -130 0 -168 -11z"/>
<path d="M6465 1931 c-79 -21 -147 -78 -186 -157 -21 -43 -24 -63 -24 -159 0
-95 3 -117 23 -157 30 -60 75 -105 132 -131 64 -30 225 -30 291 0 86 39 141
117 157 223 24 160 -43 308 -166 362 -49 22 -177 33 -227 19z m143 -137 c36
-25 52 -78 52 -174 0 -131 -33 -190 -106 -190 -70 0 -106 65 -107 190 -1 74
16 135 46 168 25 26 81 30 115 6z"/>
<path d="M2124 1873 c4 -32 11 -74 15 -93 5 -19 14 -69 21 -110 7 -41 25 -138
39 -215 l26 -140 130 0 130 0 12 60 c7 33 20 95 28 138 9 42 20 77 24 77 10 0
25 -54 47 -170 9 -47 21 -91 27 -98 7 -9 40 -12 121 -10 l111 3 12 55 c7 30
17 84 22 120 6 36 22 138 37 227 14 89 24 172 22 185 -3 21 -9 23 -74 26 l-71
3 -12 -93 c-7 -51 -17 -118 -21 -148 -5 -30 -12 -84 -16 -120 l-7 -65 -18 40
c-10 22 -19 54 -19 72 0 18 -4 54 -9 80 -5 26 -14 82 -21 123 -18 119 -9 110
-110 110 l-89 0 -10 -37 c-5 -21 -13 -56 -16 -78 -21 -142 -27 -176 -37 -228
-19 -102 -27 -88 -48 88 -7 55 -18 134 -24 175 l-12 75 -108 3 -108 3 6 -58z"/>
<path d="M3262 1623 l3 -308 215 0 215 0 3 48 c5 71 -4 77 -108 74 -126 -4
-132 -1 -128 70 l3 58 92 3 c82 2 94 5 104 23 13 25 3 89 -14 90 -7 1 -46 2
-87 3 -41 1 -81 5 -88 10 -16 10 -16 100 1 114 6 6 56 10 109 10 54 0 102 3
108 7 14 9 13 78 -2 93 -9 9 -72 12 -220 12 l-208 0 2 -307z"/>
<path d="M5442 1623 l3 -308 75 -3 c123 -5 120 -8 120 104 0 77 3 96 16 101
23 9 33 -6 67 -108 l32 -94 104 -3 c57 -1 108 1 112 5 4 4 -17 51 -47 103 -30
52 -54 102 -54 110 0 9 17 28 38 41 42 27 81 97 82 145 0 39 -25 101 -53 133
-12 13 -49 37 -82 52 -59 29 -63 29 -238 29 l-177 0 2 -307z m299 184 c30 -20
34 -29 37 -71 4 -62 -15 -92 -69 -106 -65 -18 -69 -13 -69 93 0 52 3 97 7 100
14 14 61 6 94 -16z"/>
<path d="M7166 1914 c-10 -27 -7 -301 5 -377 24 -155 98 -224 248 -234 135 -9
208 25 256 122 l30 60 0 220 0 220 -77 3 -78 3 0 -163 c0 -269 -22 -343 -99
-336 -27 2 -41 11 -58 37 -21 31 -23 46 -24 175 -1 78 -1 168 0 200 0 33 -4
65 -10 73 -18 20 -185 18 -193 -3z"/>
<path d="M8075 1917 c-3 -7 -4 -145 -3 -307 l3 -295 95 0 95 0 5 97 c3 53 8
100 12 103 4 4 47 9 95 11 164 8 243 71 243 195 0 106 -49 165 -163 195 -70
19 -375 20 -382 1z m296 -102 c51 -27 66 -110 29 -158 -25 -31 -106 -49 -121
-26 -10 16 -12 159 -3 183 8 21 56 21 95 1z"/>
<path d="M9517 1894 l-68 -35 3 -57 3 -57 36 3 c21 2 40 -2 47 -11 8 -9 12
-82 14 -218 l3 -204 70 -3 c38 -2 80 0 92 3 l23 5 0 293 c0 215 -3 296 -12
305 -7 7 -39 12 -77 11 -55 0 -78 -6 -134 -35z"/>
<path d="M10207 1894 l-68 -35 3 -57 c3 -54 4 -57 28 -54 14 1 35 0 47 -3 22
-5 23 -7 25 -218 l3 -212 70 -3 c38 -2 80 0 92 3 l23 5 0 293 c0 215 -3 296
-12 305 -7 7 -39 12 -77 11 -55 0 -78 -6 -134 -35z"/>
</g>
</svg>
